<svg width="124" height="46" viewBox="0 0 124 46" fill="none" xmlns="http://www.w3.org/2000/svg">
<g filter="url(#filter0_d_11_40)">
<rect x="6.5" y="4.5" width="111" height="33" rx="3.5" stroke="#5C17CD"/>
<path d="M37.888 27V15.8H42.544C43.728 15.8 44.656 16.0453 45.328 16.536C46.0107 17.016 46.352 17.7253 46.352 18.664C46.352 19.592 46.0267 20.296 45.376 20.776C44.7253 21.2453 43.872 21.48 42.816 21.48L43.088 21.08C44.336 21.08 45.2853 21.3253 45.936 21.816C46.5867 22.3067 46.912 23.0267 46.912 23.976C46.912 24.936 46.5707 25.6827 45.888 26.216C45.216 26.7387 44.2027 27 42.848 27H37.888ZM39.056 26.056H42.848C43.7973 26.056 44.5173 25.88 45.008 25.528C45.4987 25.176 45.744 24.632 45.744 23.896C45.744 23.1707 45.4987 22.6373 45.008 22.296C44.5173 21.9547 43.7973 21.784 42.848 21.784H39.056V26.056ZM39.056 20.872H42.48C43.344 20.872 44.0053 20.7013 44.464 20.36C44.9333 20.008 45.168 19.4907 45.168 18.808C45.168 18.1253 44.9333 17.6133 44.464 17.272C44.0053 16.92 43.344 16.744 42.48 16.744H39.056V20.872ZM53.0564 27.08C52.2457 27.08 51.515 26.8987 50.8644 26.536C50.2244 26.1627 49.7177 25.656 49.3444 25.016C48.971 24.3653 48.7844 23.624 48.7844 22.792C48.7844 21.9493 48.971 21.208 49.3444 20.568C49.7177 19.928 50.2244 19.4267 50.8644 19.064C51.5044 18.7013 52.235 18.52 53.0564 18.52C53.8884 18.52 54.6244 18.7013 55.2644 19.064C55.915 19.4267 56.4217 19.928 56.7844 20.568C57.1577 21.208 57.3444 21.9493 57.3444 22.792C57.3444 23.624 57.1577 24.3653 56.7844 25.016C56.4217 25.656 55.915 26.1627 55.2644 26.536C54.6137 26.8987 53.8777 27.08 53.0564 27.08ZM53.0564 26.072C53.6644 26.072 54.203 25.9387 54.6724 25.672C55.1417 25.3947 55.5097 25.0107 55.7764 24.52C56.0537 24.0187 56.1924 23.4427 56.1924 22.792C56.1924 22.1307 56.0537 21.5547 55.7764 21.064C55.5097 20.5733 55.1417 20.1947 54.6724 19.928C54.203 19.6507 53.6697 19.512 53.0724 19.512C52.475 19.512 51.9417 19.6507 51.4724 19.928C51.003 20.1947 50.6297 20.5733 50.3524 21.064C50.075 21.5547 49.9364 22.1307 49.9364 22.792C49.9364 23.4427 50.075 24.0187 50.3524 24.52C50.6297 25.0107 51.003 25.3947 51.4724 25.672C51.9417 25.9387 52.4697 26.072 53.0564 26.072ZM59.7723 27V18.6H60.9083V25.272L66.5243 18.6H67.5323V27H66.3963V20.312L60.7963 27H59.7723ZM63.5803 17.384C62.8763 17.384 62.3056 17.208 61.8683 16.856C61.4416 16.4933 61.2176 15.976 61.1963 15.304H62.0123C62.0229 15.7307 62.1723 16.0667 62.4603 16.312C62.7483 16.5573 63.1216 16.68 63.5803 16.68C64.0389 16.68 64.4123 16.5573 64.7003 16.312C64.9989 16.0667 65.1536 15.7307 65.1643 15.304H65.9803C65.9696 15.976 65.7456 16.4933 65.3083 16.856C64.8709 17.208 64.2949 17.384 63.5803 17.384ZM72.3879 27V19.288L72.6759 19.592H69.2039V18.6H76.7079V19.592H73.2359L73.5239 19.288V27H72.3879ZM78.3504 27V18.6H79.4864V25.272L85.1024 18.6H86.1104V27H84.9744V20.312L79.3744 27H78.3504Z" fill="white"/>
</g>
<defs>
<filter id="filter0_d_11_40" x="0" y="0" width="124" height="46" filterUnits="userSpaceOnUse" color-interpolation-filters="sRGB">
<feFlood flood-opacity="0" result="BackgroundImageFix"/>
<feColorMatrix in="SourceAlpha" type="matrix" values="0 0 0 0 0 0 0 0 0 0 0 0 0 0 0 0 0 0 127 0" result="hardAlpha"/>
<feOffset dy="2"/>
<feGaussianBlur stdDeviation="3"/>
<feColorMatrix type="matrix" values="0 0 0 0 0 0 0 0 0 0 0 0 0 0 0 0 0 0 0.1 0"/>
<feBlend mode="normal" in2="BackgroundImageFix" result="effect1_dropShadow_11_40"/>
<feBlend mode="normal" in="SourceGraphic" in2="effect1_dropShadow_11_40" result="shape"/>
</filter>
</defs>
</svg>
